<?xml version="1.0" standalone="no"?>
<!DOCTYPE svg PUBLIC "-//W3C//DTD SVG 20010904//EN"
 "http://www.w3.org/TR/2001/REC-SVG-20010904/DTD/svg10.dtd">
<svg version="1.0" xmlns="http://www.w3.org/2000/svg"
 width="500.000000pt" height="500.000000pt" viewBox="0 0 500.000000 500.000000"
 preserveAspectRatio="xMidYMid meet">

<g transform="translate(0.000000,500.000000) scale(0.100000,-0.100000)"
fill="#000000" stroke="none">
<path d="M1949 3003 c-3 -20 2 -128 6 -132 3 -2 5 19 5 47 0 51 14 69 27 35 4
-10 11 -21 17 -25 8 -6 8 -8 0 -8 -7 0 -9 -11 -6 -25 2 -14 8 -25 13 -25 5 0
9 -4 9 -10 0 -5 -6 -7 -14 -4 -9 3 -15 -4 -19 -22 -6 -32 9 -78 22 -70 5 3 7
-9 4 -28 -2 -19 0 -37 6 -41 8 -4 11 43 11 155 0 158 0 160 -20 150 -14 -8
-26 -8 -40 0 -11 6 -21 7 -21 3z"/>
<path d="M2325 2996 c22 -9 49 -13 60 -10 19 5 19 4 2 -6 -10 -7 -30 -9 -44
-6 -13 4 -22 3 -19 -2 3 -5 -9 -6 -26 -4 -23 4 -29 1 -23 -8 5 -9 1 -11 -16
-6 -13 3 -18 3 -11 0 6 -3 10 -9 7 -14 -3 -4 10 -3 29 2 72 22 140 -39 131
-118 l-5 -39 10 39 c9 32 7 44 -9 72 -18 30 -18 34 -3 46 14 11 15 11 9 -5 -5
-13 -2 -17 11 -15 14 2 17 -4 15 -32 -2 -29 -1 -31 5 -10 12 39 25 6 17 -43
-11 -70 -14 -75 -40 -73 -18 2 -22 -1 -17 -13 5 -14 4 -14 -14 -1 -18 14 -18
14 -5 -2 7 -10 17 -16 21 -13 5 3 10 -1 13 -7 2 -7 8 -9 13 -5 5 4 2 12 -5 16
-8 5 -9 11 -3 15 12 7 25 -21 16 -36 -3 -5 -12 -7 -20 -4 -14 6 -19 -6 -7 -17
10 -11 43 24 43 45 0 12 4 16 11 12 8 -5 9 6 5 37 -4 25 -4 39 1 32 6 -8 9 6
9 37 0 27 -3 47 -7 44 -4 -2 -10 3 -13 12 -3 9 -2 12 5 8 6 -3 6 2 -2 13 -21
35 -73 62 -129 68 l-55 6 40 -15z m81 -41 c-16 -17 -42 -20 -51 -6 -3 5 7 12
22 14 16 2 32 5 36 6 5 0 2 -6 -7 -14z"/>
<path d="M2851 2901 c1 -59 4 -96 6 -83 2 12 8 20 12 17 5 -2 6 8 4 23 -4 22
-2 24 7 12 8 -11 9 -6 4 25 -4 22 -11 43 -16 46 -16 11 15 49 39 49 13 0 23 3
23 8 0 4 -18 7 -40 8 l-40 0 1 -105z"/>
<path d="M3050 2885 c0 -69 2 -125 5 -125 3 0 10 10 15 23 8 21 9 21 9 -6 1
-16 5 -26 11 -22 6 4 10 -7 10 -24 0 -17 -5 -31 -10 -31 -6 0 -10 8 -8 17 2
10 -4 19 -14 21 -14 3 -18 -3 -18 -27 0 -16 5 -33 10 -36 6 -3 10 -1 10 6 0
10 3 10 12 1 17 -17 48 -15 48 3 0 8 -4 15 -10 15 -14 0 -13 33 2 48 9 9 9 15
0 24 -14 14 -17 82 -3 74 5 -3 11 5 13 18 3 17 1 23 -8 19 -7 -3 -14 5 -17 19
-2 13 -5 -2 -6 -32 l-2 -55 -15 29 c-9 15 -14 37 -11 47 3 10 1 21 -3 24 -5 3
-6 26 -3 50 3 30 1 45 -6 45 -7 0 -11 -40 -11 -125z"/>
<path d="M3192 2994 c-36 -15 -44 -29 -11 -19 16 5 19 4 14 -5 -5 -9 -4 -11 4
-6 6 4 9 11 6 16 -3 4 4 6 15 3 21 -5 28 -23 10 -23 -14 0 -91 -52 -86 -57 3
-3 20 6 38 20 41 30 66 39 70 26 2 -6 12 -11 21 -13 10 -1 23 -9 28 -17 8 -11
9 -10 7 6 -2 11 -14 25 -28 32 -14 7 -32 21 -41 31 -14 18 -19 18 -47 6z"/>
<path d="M3650 3000 c-8 -5 -10 -10 -5 -10 6 0 17 5 25 10 8 5 11 10 5 10 -5
0 -17 -5 -25 -10z"/>
<path d="M4045 3000 c-7 -12 12 -12 40 0 18 8 17 9 -7 9 -15 1 -30 -3 -33 -9z"/>
<path d="M4124 2996 c22 -18 32 -20 40 -8 3 5 0 9 -7 9 -7 0 -21 4 -32 8 -20
7 -20 6 -1 -9z"/>
<path d="M3326 2985 c4 -8 12 -15 20 -15 7 0 11 -6 8 -14 -3 -8 0 -17 5 -21 6
-3 8 -11 5 -17 -4 -7 -2 -8 4 -4 8 5 12 -5 12 -33 0 -23 4 -41 9 -41 11 0 1
84 -11 88 -4 2 -5 8 -2 13 7 12 -12 36 -37 50 -15 7 -17 6 -13 -6z"/>
<path d="M3583 2986 c-31 -18 -64 -48 -58 -54 3 -3 -1 -12 -9 -21 -19 -21 -32
-91 -17 -91 10 0 12 7 15 52 1 9 5 20 10 25 5 5 7 1 3 -10 -4 -11 -3 -16 4
-12 5 4 7 15 4 25 -4 11 1 21 12 26 26 11 53 13 47 3 -9 -15 13 -10 26 6 10
12 9 15 -6 16 -11 1 -23 1 -27 0 -4 -1 0 10 9 24 18 28 18 28 -13 11z m-28
-45 c-3 -6 -11 -11 -16 -11 -5 0 -4 6 3 14 14 16 24 13 13 -3z"/>
<path d="M3667 2986 l-27 -12 52 -19 c29 -11 56 -18 61 -17 4 1 6 -3 5 -9 -2
-6 2 -13 8 -16 7 -2 11 6 10 20 -1 17 -6 24 -18 22 -9 -2 -26 -1 -38 2 -16 4
-18 8 -8 14 10 6 8 9 -7 9 -17 0 -17 2 -5 10 21 13 1 11 -33 -4z"/>
<path d="M3730 2989 c0 -6 7 -9 15 -5 8 3 15 1 15 -4 0 -6 7 -10 16 -10 11 0
14 -6 9 -20 -8 -24 10 -27 19 -4 4 9 5 18 4 18 -2 1 -15 10 -30 19 -32 20 -48
22 -48 6z"/>
<path d="M2191 2977 c-6 -8 -8 -17 -4 -20 3 -4 -1 -7 -10 -7 -22 0 -49 -43
-41 -64 3 -9 1 -16 -5 -16 -13 0 -14 -69 -1 -90 7 -12 10 -12 16 4 4 10 2 26
-4 36 -6 10 -7 21 -2 26 5 5 10 26 12 47 2 38 5 41 32 31 18 -7 23 -64 6 -64
-5 0 -10 -12 -10 -27 0 -23 2 -25 11 -13 8 11 9 8 4 -15 -4 -21 -3 -27 4 -20
6 6 11 39 12 74 1 39 5 58 10 49 5 -7 9 -11 10 -8 0 3 2 12 4 21 2 13 -4 15
-29 13 l-31 -2 30 13 c29 14 29 14 5 15 l-25 1 25 14 c17 10 20 14 9 15 -9 0
-22 -6 -28 -13z"/>
<path d="M3963 2976 c6 -14 3 -17 -9 -12 -11 4 -15 2 -11 -8 3 -8 1 -17 -6
-19 -7 -2 -2 -3 9 -1 12 2 27 -3 34 -11 11 -13 14 -13 25 2 8 10 9 20 5 23
-18 11 117 2 137 -9 14 -7 24 -8 28 -1 3 5 -1 10 -10 10 -9 0 -13 5 -10 10 6
10 -13 15 -47 12 -10 -1 -18 3 -18 8 0 6 -5 10 -11 10 -5 0 -7 -5 -3 -12 5 -7
3 -8 -6 -3 -7 4 -16 2 -21 -6 -8 -12 -11 -11 -20 4 -5 9 -18 17 -27 16 -10 0
-12 -3 -5 -6 10 -3 10 -9 0 -24 -15 -25 -30 -25 -22 0 3 11 0 23 -6 27 -9 5
-10 2 -6 -10z"/>
<path d="M4185 2980 c3 -5 8 -10 11 -10 2 0 4 5 4 10 0 6 -5 10 -11 10 -5 0
-7 -4 -4 -10z"/>
<path d="M4299 2963 c-13 -14 -17 -22 -9 -18 12 7 13 6 4 -6 -14 -19 -12 -81
4 -87 15 -5 15 3 1 30 -9 16 -7 24 6 37 10 9 15 10 11 4 -4 -8 -2 -13 5 -13
10 0 10 -3 1 -12 -7 -7 -12 -16 -12 -22 0 -5 3 -6 7 -3 3 4 11 3 17 -3 7 -5
17 -5 26 2 13 8 12 9 -1 5 -24 -8 -31 46 -10 70 15 15 15 16 -1 4 -18 -14 -38
-7 -37 12 0 9 2 9 6 0 3 -10 8 -10 19 1 18 18 18 26 1 26 -8 0 -24 -12 -38
-27z"/>
<path d="M4520 2986 c0 -2 9 -6 20 -9 11 -3 20 -1 20 4 0 5 -9 9 -20 9 -11 0
-20 -2 -20 -4z"/>
<path d="M2910 2958 c-7 -18 -9 -19 -9 -5 -1 9 -5 17 -10 17 -6 0 -6 -12 -1
-29 4 -16 11 -64 15 -105 4 -42 11 -76 16 -76 5 0 9 36 9 79 0 67 -3 80 -17
84 -17 4 -17 5 0 6 11 1 17 9 17 26 0 31 -8 32 -20 3z"/>
<path d="M3130 2973 c0 -12 28 -30 38 -24 6 4 1 11 -14 18 -13 6 -24 9 -24 6z"/>
<path d="M4379 2978 c-9 -31 -5 -33 56 -30 43 3 62 8 62 17 0 14 -76 13 -98
-1 -8 -4 -9 -3 -5 4 4 7 2 12 -3 12 -6 0 -11 -1 -12 -2z"/>
<path d="M4510 2956 c0 -18 19 -31 28 -21 4 4 1 10 -6 12 -6 3 -10 9 -6 14 3
5 0 9 -5 9 -6 0 -11 -6 -11 -14z"/>
<path d="M3080 2950 c0 -5 7 -10 15 -10 8 0 15 5 15 10 0 6 -7 10 -15 10 -8 0
-15 -4 -15 -10z"/>
<path d="M2591 2934 c0 -11 3 -14 6 -6 3 7 2 16 -1 19 -3 4 -6 -2 -5 -13z"/>
<path d="M3810 2938 c0 -9 -6 -18 -14 -21 -7 -3 -16 -15 -19 -26 -7 -29 19
-27 28 2 3 12 9 17 11 10 3 -7 0 -21 -6 -32 -9 -19 -8 -21 15 -21 14 0 25 5
25 10 0 6 -3 9 -7 9 -22 -4 -25 2 -9 14 17 12 17 15 2 30 -9 9 -16 19 -16 22
1 4 -1 9 -4 13 -3 3 -6 -2 -6 -10z"/>
<path d="M3121 2914 c0 -11 3 -14 6 -6 3 7 2 16 -1 19 -3 4 -6 -2 -5 -13z"/>
<path d="M4345 2920 c3 -5 8 -10 11 -10 2 0 4 5 4 10 0 6 -5 10 -11 10 -5 0
-7 -4 -4 -10z"/>
<path d="M3922 2900 c-2 -33 28 -71 59 -76 13 -2 43 -8 67 -13 23 -4 42 -6 42
-3 0 2 6 0 13 -6 8 -7 18 -7 27 -2 12 8 10 10 -8 10 -15 0 -21 4 -16 12 5 7 3
8 -5 4 -7 -5 -33 -5 -57 -1 -34 5 -44 10 -40 21 4 11 2 13 -11 5 -14 -7 -20
-3 -30 21 -8 17 -16 28 -20 25 -3 -4 0 -15 8 -24 13 -16 12 -17 -3 -5 -9 8
-19 23 -21 35 -4 20 -4 19 -5 -3z"/>
<path d="M3965 2910 c3 -5 8 -10 11 -10 2 0 4 5 4 10 0 6 -5 10 -11 10 -5 0
-7 -4 -4 -10z"/>
<path d="M2621 2894 c0 -11 3 -14 6 -6 3 7 2 16 -1 19 -3 4 -6 -2 -5 -13z"/>
<path d="M3321 2888 c-1 -15 3 -29 8 -32 5 -3 4 -25 -1 -52 -8 -34 -7 -49 2
-57 10 -9 14 -9 17 1 7 18 31 15 36 -5 3 -10 5 -2 6 17 0 19 -4 42 -10 50 -8
12 -9 10 -4 -7 5 -18 2 -20 -15 -16 -21 6 -27 27 -10 38 5 3 6 13 3 22 -4 11
-3 14 5 9 17 -10 15 9 -3 24 -12 10 -15 10 -16 -1 -1 -8 -5 -3 -9 11 l-8 25
-1 -27z"/>
<path d="M3554 2902 c5 -8 2 -20 -8 -30 -8 -10 -22 -35 -31 -56 -15 -35 -15
-40 3 -69 38 -66 149 -101 239 -76 59 16 72 34 46 61 -17 17 -24 18 -39 8 -18
-10 -17 -11 4 -7 17 4 22 1 22 -14 0 -23 -16 -27 -55 -14 -19 6 -19 6 -1 -9
16 -13 13 -15 -47 -13 -36 1 -63 5 -61 8 2 4 -3 9 -11 13 -8 3 -15 0 -15 -7 0
-7 -10 3 -21 21 -12 17 -27 32 -35 32 -25 0 -13 87 17 118 17 19 17 21 2 34
-14 10 -15 10 -9 0z"/>
<path d="M3985 2880 c-3 -5 3 -10 15 -10 12 0 18 5 15 10 -3 6 -10 10 -15 10
-5 0 -12 -4 -15 -10z"/>
<path d="M3561 2857 c-6 -8 -8 -17 -4 -20 11 -12 19 -7 20 13 2 24 -1 25 -16
7z"/>
<path d="M3693 2855 c-18 -8 -33 -11 -33 -8 0 3 -10 -2 -22 -13 -12 -10 -18
-13 -14 -6 10 17 -9 15 -23 -2 -9 -11 -9 -16 0 -22 7 -4 9 -3 6 3 -4 6 8 10
31 9 25 -1 36 3 34 12 -2 10 2 10 17 3 22 -12 78 -4 88 12 4 6 0 8 -10 4 -11
-4 -14 -2 -10 9 7 18 -21 18 -64 -1z"/>
<path d="M4044 2855 c10 -8 23 -12 29 -8 11 7 -12 23 -33 23 -12 -1 -11 -4 4
-15z"/>
<path d="M4390 2860 c12 -8 12 -10 -2 -15 -25 -10 -10 -35 21 -35 14 0 39 -7
55 -15 24 -13 27 -13 23 -1 -3 8 -1 17 6 19 7 3 -1 6 -18 6 -16 0 -40 1 -52 2
-13 0 -26 5 -29 11 -5 7 -2 8 6 3 9 -5 11 -4 6 3 -4 7 -1 12 6 12 9 0 9 3 -2
10 -8 5 -19 10 -25 10 -5 0 -3 -4 5 -10z"/>
<path d="M4108 2854 c6 -3 12 -12 12 -20 0 -8 8 -14 18 -14 10 0 28 -9 40 -20
12 -12 23 -16 27 -10 3 6 1 10 -5 10 -6 0 -8 5 -5 10 3 6 -1 10 -10 10 -10 0
-13 5 -9 12 5 7 2 9 -9 5 -9 -3 -17 -2 -19 2 -2 5 -14 11 -28 15 -14 3 -19 3
-12 0z"/>
<path d="M4316 2851 c-9 -14 -8 -16 20 -25 15 -4 21 -2 21 9 0 9 -6 14 -13 11
-7 -3 -14 0 -17 7 -2 8 -6 7 -11 -2z"/>
<path d="M4485 2840 c4 -6 10 -8 15 -5 5 3 11 -4 15 -15 3 -11 11 -20 16 -20
6 0 7 5 3 12 -4 7 -3 8 4 4 11 -7 6 -36 -7 -36 -4 0 -12 5 -19 12 -7 7 -12 10
-12 7 0 -2 13 -17 29 -32 21 -19 32 -24 37 -16 4 8 3 9 -4 5 -16 -9 -16 26 -1
41 9 9 3 17 -22 32 -36 22 -64 28 -54 11z"/>
<path d="M1737 2803 c8 -50 13 -55 13 -10 0 20 -4 38 -9 42 -6 3 -7 -10 -4
-32z"/>
<path d="M2442 2820 c0 -14 2 -19 5 -12 2 6 2 18 0 25 -3 6 -5 1 -5 -13z"/>
<path d="M1941 2813 c0 -12 -9 -27 -18 -32 -10 -6 -13 -11 -7 -11 18 0 36 27
31 47 -4 14 -5 14 -6 -4z"/>
<path d="M2630 2802 c0 -7 -4 -10 -10 -7 -5 3 -10 -4 -11 -17 -1 -23 -1 -23
-9 2 l-8 25 -1 -27 c-1 -16 4 -28 9 -28 6 0 10 -8 10 -18 0 -11 10 -27 22 -38
12 -10 18 -13 14 -7 -5 9 -2 11 8 7 9 -3 14 -9 12 -13 -3 -4 3 -8 12 -8 9 -1
33 -4 52 -6 44 -6 81 8 87 33 7 27 17 25 33 -5 12 -22 15 -23 22 -10 5 8 6 19
3 24 -3 6 3 9 14 8 23 -1 36 -38 18 -49 -8 -5 -7 -8 4 -8 12 0 16 11 17 44 0
38 -3 44 -19 43 -10 -1 -19 -4 -19 -8 0 -12 -36 -20 -54 -13 -10 4 -15 12 -12
20 3 8 -9 4 -32 -9 -36 -21 -36 -21 -11 -28 23 -7 23 -7 2 -8 -13 -1 -23 -7
-23 -14 0 -8 -9 -13 -22 -12 -13 2 -22 8 -20 14 3 15 -15 14 -20 -1 -5 -14
-48 26 -48 44 0 6 -6 4 -13 -6 -11 -16 -13 -13 -13 21 -1 21 1 30 3 21 3 -10
9 -18 15 -18 6 0 16 -8 23 -17 7 -10 24 -18 37 -18 13 -1 29 -5 36 -9 8 -4 10
-2 6 7 -3 8 -16 19 -29 25 -13 6 -26 20 -30 31 -7 24 -25 28 -25 6 0 -8 -5
-15 -11 -15 -5 0 -7 4 -4 10 3 5 1 18 -4 27 -6 11 -11 13 -11 5z m75 -72 c3
-5 2 -10 -4 -10 -5 0 -13 5 -16 10 -3 6 -2 10 4 10 5 0 13 -4 16 -10z"/>
<path d="M917 2793 c-13 -12 -7 -20 77 -105 92 -93 112 -133 102 -205 -8 -57
-34 -94 -91 -128 -46 -26 -51 -45 -14 -45 52 0 121 63 139 128 29 104 4 166
-111 280 -84 83 -90 87 -102 75z"/>
<path d="M4144 2794 c-6 -3 -9 -16 -6 -29 3 -17 -1 -27 -12 -31 -9 -3 -13 -11
-9 -18 4 -6 8 -17 8 -25 0 -26 23 -22 57 9 18 18 28 29 21 26 -6 -3 -13 -3
-16 1 -2 5 -2 2 -1 -4 4 -16 -12 -17 -21 -3 -4 6 -2 17 4 24 9 10 8 15 -4 20
-8 3 -15 10 -15 16 0 6 5 8 12 4 7 -4 8 -3 4 4 -4 7 -8 12 -9 11 -1 0 -7 -3
-13 -5z m16 -85 c11 -19 10 -20 -9 -9 -12 6 -21 15 -21 20 0 18 19 11 30 -11z"/>
<path d="M1696 2770 c9 -35 44 -68 79 -74 l30 -6 -28 12 c-18 8 -26 17 -22 26
5 13 3 13 -11 1 -13 -11 -15 -11 -14 2 4 25 -1 55 -7 41 -4 -10 -9 -9 -20 5
-13 17 -14 16 -7 -7z"/>
<path d="M1067 2773 c-13 -13 -7 -35 8 -29 8 3 14 2 13 -2 -4 -12 26 -52 38
-52 7 0 14 -9 17 -20 3 -13 10 -18 21 -14 12 5 15 2 9 -11 -3 -11 0 -22 8 -29
9 -7 14 -34 15 -81 2 -57 5 -71 19 -73 15 -3 16 4 12 55 -5 73 -10 89 -38 138
-19 34 -101 125 -112 125 -2 0 -7 -3 -10 -7z"/>
<path d="M3560 2765 c0 -8 4 -15 9 -15 5 0 12 -8 15 -18 7 -20 46 -25 46 -5 0
14 -34 35 -44 26 -3 -3 -6 1 -6 10 0 10 -4 17 -10 17 -5 0 -10 -7 -10 -15z
m45 -25 c3 -5 1 -10 -4 -10 -6 0 -11 5 -11 10 0 6 2 10 4 10 3 0 8 -4 11 -10z"/>
<path d="M815 2760 c-8 -13 26 -60 67 -95 28 -24 32 -25 47 -11 14 15 11 21
-34 66 -49 50 -68 59 -80 40z"/>
<path d="M1806 2757 c3 -9 10 -17 15 -17 17 0 24 -4 44 -26 18 -20 23 -20 40
-8 10 8 15 14 9 14 -5 0 -3 4 4 9 17 10 -19 21 -58 16 -14 -1 -33 5 -43 13
-16 15 -17 14 -11 -1z m91 -23 c-3 -3 -12 -4 -19 -1 -8 3 -5 6 6 6 11 1 17 -2
13 -5z"/>
<path d="M2144 2759 c-3 -6 7 -25 25 -42 23 -24 33 -29 42 -20 15 15 -7 47
-27 39 -14 -5 -37 17 -27 27 3 4 4 7 0 7 -3 0 -9 -5 -13 -11z m51 -39 c3 -5 1
-10 -4 -10 -6 0 -11 5 -11 10 0 6 2 10 4 10 3 0 8 -4 11 -10z"/>
<path d="M2846 2757 c3 -10 9 -15 12 -12 3 3 0 11 -7 18 -10 9 -11 8 -5 -6z"/>
<path d="M4190 2760 c0 -5 5 -10 11 -10 5 0 7 5 4 10 -3 6 -8 10 -11 10 -2 0
-4 -4 -4 -10z"/>
<path d="M4495 2760 c-3 -5 -1 -10 4 -10 6 0 11 5 11 10 0 6 -2 10 -4 10 -3 0
-8 -4 -11 -10z"/>
<path d="M1980 2750 c0 -5 5 -10 11 -10 5 0 7 5 4 10 -3 6 -8 10 -11 10 -2 0
-4 -4 -4 -10z"/>
<path d="M2220 2744 c0 -6 7 -17 15 -24 13 -11 13 -14 -2 -26 -17 -12 -16 -13
3 -8 12 3 26 -1 33 -10 15 -18 31 -21 31 -6 0 6 -10 15 -22 21 -21 8 -20 9 7
5 26 -4 27 -2 12 8 -9 7 -15 16 -12 20 3 3 -1 2 -7 -4 -18 -15 -31 -12 -24 6
4 9 2 13 -5 8 -6 -4 -15 0 -20 7 -5 8 -9 9 -9 3z"/>
<path d="M1940 2720 c0 -11 5 -20 10 -20 7 0 7 -6 0 -19 -5 -11 -10 -23 -10
-28 1 -4 8 5 16 21 13 24 14 30 2 37 -9 6 -10 9 0 9 6 0 12 5 12 10 0 6 -7 10
-15 10 -8 0 -15 -9 -15 -20z"/>
<path d="M2366 2729 c4 -7 0 -9 -12 -5 -11 3 -25 2 -32 -3 -10 -6 -10 -10 3
-21 13 -11 15 -10 9 4 -3 9 -3 16 1 16 10 0 35 -27 35 -39 0 -13 10 -14 29 -2
16 10 1 45 -24 55 -10 4 -14 2 -9 -5z m24 -19 c0 -5 -4 -10 -10 -10 -5 0 -10
5 -10 10 0 6 5 10 10 10 6 0 10 -4 10 -10z"/>
<path d="M3324 2717 c3 -12 5 -26 5 -31 1 -4 7 -6 15 -3 8 3 16 1 19 -6 2 -6
6 -4 10 6 4 11 1 17 -8 17 -8 0 -15 6 -15 14 0 8 -7 16 -15 20 -11 4 -14 0
-11 -17z"/>
<path d="M3987 2702 c23 -23 47 -42 55 -42 7 1 0 8 -15 16 -15 8 -25 19 -22
24 4 6 0 10 -7 10 -9 0 -9 3 2 10 13 8 13 10 -2 10 -9 0 -25 3 -35 7 -9 4 1
-12 24 -35z"/>
<path d="M4295 2716 c6 -26 4 -28 -9 -17 -9 8 -16 9 -16 3 0 -15 24 -21 61
-15 42 6 51 13 18 13 -19 0 -21 2 -9 10 13 8 12 10 -3 10 -11 0 -15 4 -11 12
5 7 3 8 -5 4 -7 -5 -10 -14 -7 -22 9 -23 -4 -16 -15 9 -8 19 -9 18 -4 -7z"/>
<path d="M4540 2720 c0 -5 -7 -7 -16 -3 -11 4 -15 1 -12 -12 2 -10 -4 -20 -12
-22 -13 -4 -13 -3 0 6 12 8 11 10 -8 8 -19 -1 -20 -3 -8 -15 16 -16 39 -7 70
27 17 19 17 21 3 21 -10 0 -17 -4 -17 -10z"/>
<path d="M726 2703 c-5 -12 19 -43 91 -115 54 -54 102 -97 108 -95 30 10 10
44 -79 132 -53 52 -100 95 -105 95 -5 0 -12 -8 -15 -17z"/>
<path d="M3920 2707 c0 -8 11 -19 25 -25 32 -15 35 -15 35 -2 0 6 -9 10 -19
10 -11 0 -23 5 -27 12 -5 8 -2 9 9 5 10 -3 17 -2 17 3 0 6 -9 10 -20 10 -11 0
-20 -6 -20 -13z"/>
<path d="M4025 2710 c-3 -5 -2 -10 4 -10 5 0 13 5 16 10 3 6 2 10 -4 10 -5 0
-13 -4 -16 -10z"/>
<path d="M4370 2714 c0 -2 9 -8 20 -14 11 -6 20 -7 20 -2 0 6 -9 12 -20 15
-11 3 -20 3 -20 1z"/>
<path d="M4445 2709 c-4 -6 -5 -12 -2 -15 2 -3 7 2 10 11 7 17 1 20 -8 4z"/>
<path d="M1991 2676 c-14 -16 -6 -40 10 -31 12 8 11 -2 -1 -26 -13 -24 -32
-25 -23 -1 3 9 3 14 -1 11 -4 -4 -8 -16 -11 -28 -5 -29 -14 -41 -28 -41 -8 0
-8 3 1 9 11 7 10 9 -3 14 -9 4 -14 3 -11 -1 6 -10 -30 -42 -47 -42 -8 0 -7 4
3 10 13 8 12 10 -2 10 -10 0 -18 -5 -18 -12 0 -9 -3 -9 -12 0 -10 10 -10 15 1
21 11 7 9 10 -8 16 -13 4 -25 4 -28 1 -4 -3 2 -7 13 -7 12 -1 7 -4 -11 -9 -24
-6 -26 -8 -7 -9 12 0 22 -6 22 -12 0 -11 -61 -2 -70 11 -9 12 -70 30 -70 20 0
-31 140 -60 217 -45 23 4 50 21 75 47 36 38 47 76 20 71 -16 -4 -15 14 1 20 6
2 9 7 6 11 -3 4 -12 0 -18 -8z"/>
<path d="M4389 2669 c-10 -6 -6 -9 16 -9 40 0 66 17 28 18 -16 0 -36 -4 -44
-9z"/>
<path d="M677 2623 c-14 -14 -5 -27 80 -111 105 -105 128 -122 171 -122 70 0
122 52 122 123 0 34 -34 97 -56 104 -21 7 -24 -27 -4 -60 11 -17 20 -40 20
-50 0 -26 -54 -77 -80 -77 -14 0 -58 35 -125 100 -100 97 -114 107 -128 93z"/>
<path d="M1740 2588 c0 -11 12 -10 30 2 12 7 10 9 -8 7 -12 0 -22 -5 -22 -9z"/>
<path d="M653 2523 c-22 -8 -15 -21 60 -98 88 -93 163 -136 182 -105 3 5 -9
17 -27 26 -18 9 -71 54 -118 99 -47 45 -91 80 -97 78z"/>
<path d="M2451 2486 c-9 -11 -9 -15 0 -18 6 -2 12 -16 12 -31 0 -26 2 -28 36
-25 29 2 37 8 39 26 3 22 -4 27 -32 16 -8 -3 -13 -11 -10 -18 3 -7 -1 -13 -9
-13 -22 0 -18 37 6 47 21 8 21 9 2 10 -17 2 -16 3 5 10 24 8 24 8 -6 9 -17 1
-37 -5 -43 -13z"/>
<path d="M2747 2463 c-4 -3 -7 -13 -7 -20 0 -20 23 -11 26 10 2 17 -7 22 -19
10z"/>
<path d="M2806 2461 c-4 -6 0 -14 9 -17 20 -8 42 10 26 20 -6 4 -11 1 -11 -6
0 -10 -2 -10 -9 1 -6 9 -11 10 -15 2z"/>
<path d="M2694 2445 c-3 -8 -4 -20 -1 -27 3 -7 6 -3 6 9 1 12 7 24 14 26 9 4
9 6 -1 6 -7 1 -15 -6 -18 -14z"/>
<path d="M2665 2419 c-4 -6 -5 -12 -2 -15 2 -3 7 2 10 11 7 17 1 20 -8 4z"/>
<path d="M2805 2420 c3 -5 10 -10 16 -10 5 0 9 5 9 10 0 6 -7 10 -16 10 -8 0
-12 -4 -9 -10z"/>
<path d="M2715 2410 c-11 -18 26 -23 43 -6 10 10 12 16 4 16 -7 0 -12 -4 -12
-10 0 -5 -8 -10 -17 -10 -15 0 -16 2 -3 10 9 6 10 10 3 10 -6 0 -15 -5 -18
-10z"/>
<path d="M2170 2241 c-1 -137 2 -172 14 -184 8 -8 13 -17 10 -19 -2 -3 2 -10
9 -17 12 -9 13 -6 9 15 -2 14 -11 28 -18 31 -8 3 -14 13 -14 22 0 14 2 14 10
1 7 -12 12 -12 22 -2 9 9 9 12 0 12 -7 0 -12 5 -12 11 0 5 4 8 9 5 5 -4 8 2 6
11 -2 10 -6 63 -9 118 -11 224 -34 221 -36 -4z"/>
<path d="M2238 2403 c7 -3 16 -2 19 1 4 3 -2 6 -13 5 -11 0 -14 -3 -6 -6z"/>
<path d="M2657 2383 c-11 -11 -8 -383 3 -383 5 0 9 6 8 13 -2 6 3 11 10 10 16
-4 16 25 -1 41 -14 14 -17 229 -4 243 4 3 7 24 7 45 0 36 -8 47 -23 31z"/>
<path d="M666 2372 c-9 -14 102 -121 143 -138 68 -28 241 -30 241 -3 0 6 -5 7
-12 3 -7 -4 -8 -3 -4 5 5 8 12 9 20 2 16 -13 78 28 71 47 -3 7 0 10 5 7 9 -6
60 40 60 54 0 3 -5 13 -10 21 -8 13 -11 12 -24 -5 -9 -11 -14 -25 -11 -32 2
-7 -1 -15 -7 -19 -7 -4 -8 -3 -4 4 4 7 5 12 1 12 -3 0 -14 -15 -25 -32 -11
-18 -20 -27 -20 -19 0 12 -2 12 -17 0 -54 -43 -156 -53 -227 -24 -20 8 -36 13
-36 9 0 -3 -27 20 -61 53 -66 63 -74 69 -83 55z"/>
<path d="M2719 2378 c0 -2 -3 -16 -5 -33 -3 -16 -9 -32 -14 -35 -5 -3 -6 -25
-3 -50 5 -34 8 -40 14 -25 7 20 8 20 8 0 1 -17 3 -17 11 -5 14 22 12 30 -7 30
-17 1 -17 1 -1 11 9 5 15 16 12 23 -3 8 -1 17 5 21 10 5 16 -14 12 -37 0 -5 4
-8 9 -8 21 0 10 47 -15 60 -19 10 -22 17 -14 31 6 13 6 19 -1 19 -5 0 -10 -1
-11 -2z"/>
<path d="M2251 2347 c-1 -26 17 -57 34 -57 7 0 16 -6 18 -12 3 -8 6 -6 6 4 1
11 6 15 16 12 8 -4 12 -11 8 -17 -3 -5 -1 -7 5 -4 5 4 9 15 7 25 -2 9 -4 20
-4 25 -2 13 -29 8 -46 -9 -18 -19 -19 -19 -33 21 -6 18 -11 23 -11 12z"/>
<path d="M1845 2330 c-19 -8 -19 -9 3 -9 12 -1 22 4 22 9 0 6 -1 10 -2 9 -2 0
-12 -4 -23 -9z"/>
<path d="M2503 2334 c-9 -4 -9 -13 -2 -30 5 -14 8 -51 7 -82 l-1 -57 -6 62
c-4 46 -12 68 -28 85 l-23 22 1 -169 c0 -129 3 -164 11 -145 16 39 21 172 6
182 -10 6 -10 8 0 8 7 0 12 13 12 30 0 17 -4 30 -10 30 -5 0 -7 7 -3 16 12 31
21 -9 26 -121 3 -60 7 -119 9 -129 2 -10 -3 -21 -11 -24 -8 -3 -11 0 -7 7 4 6
2 11 -3 11 -6 0 -11 -7 -11 -16 0 -11 6 -15 20 -11 11 3 20 1 20 -4 0 -5 4 -9
8 -9 5 0 9 79 11 175 1 96 -2 175 -6 174 -4 0 -13 -3 -20 -5z"/>
<path d="M1751 2309 c-31 -19 -75 -94 -65 -111 10 -17 25 -7 19 12 -4 13 -1
22 9 26 9 3 16 14 16 24 0 11 5 22 12 26 7 4 8 3 4 -4 -5 -8 -2 -10 8 -6 9 3
14 10 11 14 -3 5 3 13 12 19 10 5 15 12 12 15 -3 3 -20 -4 -38 -15z"/>
<path d="M1877 2316 c-15 -7 -24 -15 -21 -19 4 -4 1 -7 -7 -7 -24 0 13 -20 38
-20 13 0 37 -13 55 -29 29 -26 32 -34 31 -77 l-1 -49 14 40 c11 31 12 46 3 67
-6 16 -16 28 -21 28 -5 0 -6 10 -3 21 5 13 3 19 -3 15 -5 -3 -12 1 -15 8 -10
25 -40 34 -70 22z"/>
<path d="M1973 2314 c0 -17 14 -18 20 -1 2 6 11 -4 21 -24 13 -28 16 -53 12
-113 -3 -42 -8 -81 -11 -85 -2 -5 2 -14 10 -21 7 -6 11 -18 8 -26 -3 -8 0 -14
5 -14 16 0 20 26 21 113 0 57 -3 76 -12 70 -9 -5 -9 -3 0 8 7 9 11 35 10 58
-3 43 -3 43 -43 46 -30 2 -41 -1 -41 -11z"/>
<path d="M2785 2310 c9 -29 26 -43 38 -31 11 11 -1 51 -14 51 -6 0 -7 -6 -3
-12 5 -8 0 -7 -11 2 -17 14 -17 13 -10 -10z"/>
<path d="M2245 2282 c3 -19 1 -32 -5 -32 -5 0 -10 -9 -10 -20 0 -11 5 -20 10
-20 7 0 7 -6 0 -19 -7 -14 -7 -22 1 -26 6 -4 9 -27 6 -56 -3 -27 -1 -47 3 -44
4 3 11 -5 15 -18 4 -14 8 -17 12 -9 3 7 0 18 -5 25 -6 7 -12 44 -13 82 -1 39
-7 73 -12 77 -7 4 -7 11 1 20 11 14 9 54 -3 67 -3 3 -4 -9 0 -27z"/>
<path d="M1787 2246 c-14 -16 -17 -17 -13 -4 3 12 1 15 -9 12 -11 -5 -12 -10
-3 -24 11 -17 13 -17 31 6 24 31 19 40 -6 10z"/>
<path d="M2691 2154 c0 -11 3 -14 6 -6 3 7 2 16 -1 19 -3 4 -6 -2 -5 -13z"/>
<path d="M2706 2139 c-3 -17 -2 -38 4 -47 7 -13 9 -5 10 31 0 54 -5 60 -14 16z"/>
<path d="M1694 2101 c0 -11 2 -18 5 -15 3 3 12 -10 21 -28 8 -18 29 -39 45
-47 35 -17 145 -25 145 -11 0 6 3 9 8 7 4 -1 8 3 10 8 1 6 -2 10 -8 9 -5 -1
-17 -2 -26 -2 -8 -1 -13 -6 -10 -10 2 -4 -8 -7 -22 -6 -64 3 -86 6 -75 10 8 4
7 11 -5 25 -22 26 -35 24 -22 -3 10 -21 9 -21 -9 2 -11 14 -21 34 -21 44 0 11
-3 16 -7 13 -3 -4 -11 0 -17 9 -10 13 -12 13 -12 -5z"/>
<path d="M1770 2105 c0 -8 4 -15 10 -15 5 0 7 7 4 15 -4 8 -8 15 -10 15 -2 0
-4 -7 -4 -15z"/>
<path d="M1743 2085 c-3 -9 -3 -18 -1 -21 3 -3 8 4 11 16 6 23 -1 27 -10 5z"/>
<path d="M1966 2083 c-3 -3 0 -13 7 -21 10 -13 9 -15 -5 -10 -10 4 -19 1 -23
-10 -3 -9 -3 -14 0 -10 10 10 45 -24 38 -36 -3 -6 0 -5 7 1 12 11 11 16 -6 29
-10 8 -13 13 -6 9 8 -4 12 2 12 19 0 25 -12 41 -24 29z"/>
<path d="M1790 2064 c0 -8 4 -13 9 -10 16 10 41 -5 41 -25 0 -15 4 -17 23 -10
29 11 36 42 8 34 -12 -3 -32 2 -46 11 -30 20 -35 20 -35 0z"/>
<path d="M2325 2050 c-3 -5 -13 -7 -23 -4 -9 2 1 -5 23 -16 22 -11 30 -18 17
-16 -12 2 -20 0 -16 -5 7 -12 44 -12 44 1 0 5 -9 14 -20 20 -11 6 -18 15 -15
21 4 5 4 9 1 9 -3 0 -7 -4 -11 -10z"/>
<path d="M2715 2031 c-3 -11 -14 -21 -23 -23 -11 -3 -8 -6 10 -10 15 -3 25 -2
23 3 -3 4 1 10 7 12 10 4 10 6 1 6 -7 1 -10 8 -7 16 4 8 4 15 1 15 -3 0 -8 -9
-12 -19z"/>
<path d="M2010 2010 c0 -5 7 -6 17 -3 12 5 14 3 8 -7 -5 -8 -3 -11 5 -8 26 8
22 28 -4 28 -14 0 -26 -4 -26 -10z"/>
<path d="M2235 2010 c-3 -5 1 -10 9 -10 9 0 16 5 16 10 0 6 -4 10 -9 10 -6 0
-13 -4 -16 -10z"/>
</g>
</svg>
